<?xml version="1.0" standalone="no"?>
<!DOCTYPE svg PUBLIC "-//W3C//DTD SVG 20010904//EN"
 "http://www.w3.org/TR/2001/REC-SVG-20010904/DTD/svg10.dtd">
<svg version="1.0" xmlns="http://www.w3.org/2000/svg"
 width="1280.000000pt" height="723.000000pt" viewBox="0 0 1280.000000 723.000000"
 preserveAspectRatio="xMidYMid meet">

<g transform="translate(0.000000,723.000000) scale(0.100000,-0.100000)"
fill="#000000" stroke="none">
<path d="M0 3615 l0 -3615 6400 0 6400 0 0 3615 0 3615 -6400 0 -6400 0 0
-3615z m8985 2821 c60 -27 126 -98 148 -158 23 -65 223 -687 236 -735 7 -24
15 -43 19 -43 4 0 13 -10 21 -22 13 -21 13 -22 -1 -10 -11 9 -17 9 -20 2 -4
-14 -107 258 -203 540 -88 261 -116 320 -169 366 -41 35 -112 64 -157 64 -15
0 -31 5 -34 10 -13 21 108 11 160 -14z m199 -738 c64 -194 123 -382 132 -418
9 -36 20 -72 24 -81 5 -9 14 -44 20 -77 7 -34 16 -59 21 -56 5 3 9 -5 9 -18 0
-13 4 -29 9 -37 15 -24 2 -48 -24 -44 -12 3 -26 0 -29 -6 -11 -17 -23 -13 -29
10 -6 22 -28 18 -23 -4 1 -7 1 -9 -1 -4 -3 4 -10 7 -16 7 -7 0 -18 10 -26 22
l-13 21 -19 -24 c-20 -25 -23 -20 -19 33 1 22 -2 27 -14 22 -11 -4 -16 -1 -16
10 0 12 -10 16 -36 16 -25 0 -33 -4 -28 -12 5 -10 4 -10 -6 -1 -11 10 -11 15
0 28 12 15 10 16 -21 10 -23 -4 -44 -1 -64 10 l-30 17 30 -6 c28 -5 28 -5 8 6
-13 6 -23 14 -23 18 0 4 -13 13 -30 20 -16 7 -36 23 -45 36 -10 16 -25 24 -44
24 -17 0 -31 6 -35 16 -4 10 -14 14 -26 11 -15 -4 -20 0 -20 14 0 10 -7 19
-15 19 -8 0 -15 7 -15 15 0 8 -6 15 -14 15 -7 0 -16 13 -19 29 -4 20 -16 33
-37 42 -20 9 -30 21 -30 35 0 12 -15 35 -35 53 -19 17 -35 36 -35 44 0 7 -13
20 -28 29 -15 9 -33 27 -38 40 -6 13 -20 43 -32 68 -12 25 -22 53 -22 62 0 10
-13 32 -29 50 l-28 32 34 23 c19 13 38 23 43 23 5 0 56 19 112 42 160 64 432
167 445 167 8 1 58 -138 127 -351z m223 -300 c-3 -8 -6 -5 -6 6 -1 11 2 17 5
13 3 -3 4 -12 1 -19z m30 -100 c-3 -8 -6 -5 -6 6 -1 11 2 17 5 13 3 -3 4 -12
1 -19z m42 -18 c0 -10 -3 -8 -9 5 -12 27 -12 43 0 25 5 -8 9 -22 9 -30z m21
-55 c0 -5 -5 -3 -10 5 -5 8 -10 20 -10 25 0 6 5 3 10 -5 5 -8 10 -19 10 -25z
m-4254 -5 c10 0 14 -13 14 -44 0 -59 30 -94 85 -101 350 -43 557 -67 588 -67
49 -1 73 22 82 77 3 25 9 46 13 49 15 9 370 -42 400 -58 37 -19 57 -48 66 -95
3 -18 -14 -201 -39 -410 -24 -207 -51 -434 -60 -506 -47 -402 -137 -1107 -147
-1152 -6 -29 -17 -54 -24 -57 -8 -3 -14 -1 -14 4 0 6 -12 10 -26 10 -20 0 -25
-4 -22 -17 4 -17 -4 -18 -101 -12 -69 3 -132 14 -181 29 -71 22 -141 58 -154
79 -3 5 -25 19 -49 30 -53 26 -103 70 -111 98 -4 12 -16 25 -27 28 -10 4 -19
10 -19 15 0 5 -10 10 -22 12 -11 2 -22 11 -24 21 -1 11 -4 20 -6 21 -2 1 -14
9 -28 18 -14 9 -34 33 -45 54 -11 22 -28 46 -37 55 -10 9 -18 21 -18 27 0 6
-9 16 -20 22 -12 7 -22 25 -26 50 -4 22 -10 37 -15 34 -5 -2 -11 8 -15 23 -3
15 -10 41 -15 57 -5 16 -7 31 -5 33 2 3 -11 20 -30 38 -19 19 -43 58 -54 87
-12 29 -32 63 -45 75 -13 12 -30 42 -36 67 -6 26 -15 49 -20 52 -5 3 -9 31
-10 62 -1 44 -3 51 -9 32 -6 -17 -8 -3 -8 47 0 39 -3 77 -8 85 -4 7 -7 26 -6
43 1 16 -2 54 -6 83 -5 28 -6 52 -3 52 4 0 6 46 6 103 0 82 5 177 14 292 1 6
5 4 10 -3 5 -8 7 8 5 40 -2 29 -1 47 2 41 9 -21 22 -15 22 10 0 39 23 171 34
194 6 11 7 26 4 32 -4 6 -1 11 7 11 16 0 26 37 33 120 3 35 11 60 21 68 14 10
14 12 2 13 -9 0 -10 2 -2 5 7 3 9 12 6 21 -5 14 -1 15 27 10 18 -4 39 -7 46
-7z m4244 -45 c0 -5 -5 -3 -10 5 -5 8 -10 20 -10 25 0 6 5 3 10 -5 5 -8 10
-19 10 -25z m-2968 -11 c21 -15 48 -41 60 -57 21 -29 41 -97 29 -97 -3 0 -24
26 -46 57 -24 34 -64 72 -100 96 l-60 40 39 -6 c21 -4 56 -18 78 -33z m2316
-19 c187 -44 353 -203 408 -392 17 -60 15 -59 127 -42 88 13 182 44 222 74 53
39 193 104 241 111 27 4 63 2 87 -5 136 -39 503 -194 632 -266 79 -44 122 -91
180 -195 26 -47 107 -182 180 -300 72 -118 163 -267 201 -330 117 -194 188
-256 452 -390 76 -39 102 -57 102 -71 0 -31 -44 -131 -82 -184 -19 -28 -47
-81 -62 -120 -34 -87 -50 -105 -91 -105 -36 0 -121 35 -175 72 -19 13 -43 27
-53 31 -9 3 -20 15 -24 24 -4 10 -12 22 -20 26 -7 4 -13 13 -13 20 0 7 -8 17
-18 24 -15 9 -18 22 -16 70 2 46 -3 68 -24 111 -22 45 -33 54 -67 64 -22 7
-69 30 -105 51 -169 100 -184 111 -240 192 -14 20 -34 48 -46 63 -12 15 -40
63 -64 107 -23 43 -49 85 -56 93 -8 7 -14 18 -14 23 0 5 -8 22 -17 36 -10 15
-30 58 -44 97 -20 54 -32 72 -50 77 -17 5 -10 8 26 9 28 1 44 4 37 7 -6 2 -9
9 -6 14 3 6 1 16 -5 23 -7 8 -11 18 -10 22 1 5 -1 30 -5 56 -6 36 -18 57 -50
90 -37 39 -117 98 -132 98 -3 0 -42 26 -87 58 -79 56 -195 115 -247 126 -14 3
-35 8 -47 12 -15 4 -23 2 -23 -6 0 -9 -4 -9 -13 -2 -20 17 -86 7 -187 -28 -67
-23 -131 -36 -224 -46 -219 -23 -273 -18 -325 29 l-24 22 6 -50 c4 -27 9 -61
13 -75 4 -17 -6 -8 -31 28 -27 37 -41 49 -46 40 -5 -7 -4 -14 1 -16 17 -6 11
-22 -8 -22 -10 0 -23 -5 -30 -12 -8 -8 -13 -5 -21 13 -37 96 -44 109 -62 109
-10 0 -19 4 -19 8 0 18 12 20 38 6 19 -9 30 -10 39 -2 20 16 16 25 -27 65 -28
25 -38 39 -30 47 7 7 14 4 25 -10 11 -14 14 -15 15 -4 0 34 -14 40 -55 25 -22
-8 -48 -14 -59 -15 -14 0 -17 -6 -14 -25 4 -19 1 -25 -12 -25 -9 0 -22 -11
-28 -25 -11 -23 -9 -27 14 -35 21 -9 25 -15 20 -35 -5 -18 -2 -27 9 -31 19 -8
20 -44 1 -44 -8 0 -17 4 -20 9 -3 4 -17 6 -31 3 -14 -2 -36 3 -52 13 -24 16
-27 16 -38 1 -7 -9 -19 -16 -28 -16 -24 0 -31 -19 -14 -38 8 -9 22 -41 31 -69
20 -60 35 -75 43 -44 7 28 17 26 32 -6 9 -20 15 -23 23 -15 17 17 25 15 31
-10 5 -18 8 -19 21 -9 9 8 14 17 11 21 -3 5 -1 11 5 15 16 10 11 26 -7 24 -48
-4 -55 0 -48 31 5 24 3 30 -10 30 -12 0 -15 -6 -10 -20 7 -21 -9 -28 -21 -9
-5 8 -9 7 -14 -1 -9 -14 -40 -6 -40 10 0 5 9 10 20 10 11 0 29 9 41 21 13 13
27 18 39 14 11 -3 28 -1 40 5 16 9 22 8 26 -4 5 -12 16 -14 52 -9 33 4 43 3
38 -5 -4 -7 -16 -12 -27 -12 -30 0 -69 -29 -62 -46 5 -13 8 -13 23 1 9 8 23
15 31 15 8 0 23 7 33 15 22 17 46 20 46 6 0 -5 -16 -15 -35 -21 -35 -11 -48
-30 -21 -30 7 0 16 -9 19 -21 3 -12 10 -18 17 -14 6 4 8 15 5 26 -8 24 7 25
22 0 8 -13 9 -31 2 -62 -12 -50 -3 -139 14 -139 6 0 8 -3 4 -6 -3 -4 1 -13 9
-21 21 -21 7 -34 -74 -71 -157 -73 -314 -69 -482 10 -82 39 -193 148 -238 234
-85 162 -81 376 10 546 73 137 237 256 388 281 57 10 169 6 228 -8z m542 -201
c0 -8 -4 -12 -10 -9 -5 3 -10 10 -10 16 0 5 5 9 10 9 6 0 10 -7 10 -16z m-100
-54 c0 -5 -5 -10 -11 -10 -5 0 -7 5 -4 10 3 6 8 10 11 10 2 0 4 -4 4 -10z
m-410 -201 c11 -8 12 -12 3 -16 -7 -2 -13 -22 -13 -43 0 -25 -5 -40 -16 -44
-25 -10 -34 -7 -34 9 0 8 7 15 16 15 11 0 13 6 9 19 -3 11 -1 22 5 26 6 4 8
15 5 26 -7 21 2 24 25 8z m38 -141 c13 -36 5 -50 -34 -62 -18 -6 -22 -1 -27
30 -5 28 -2 40 11 50 26 20 37 17 50 -18z m-198 -54 c0 -8 -9 -14 -20 -14 -22
0 -28 26 -7 33 16 6 27 -1 27 -19z m307 -22 c9 -6 7 -11 -7 -20 -17 -11 -20
-10 -20 8 0 21 7 25 27 12z m33 -42 c0 -5 -4 -10 -9 -10 -5 0 -18 -3 -28 -6
-16 -5 -16 -4 1 10 23 18 36 20 36 6z m-1826 -107 c39 -32 101 -80 138 -107
l66 -49 -110 -146 c-60 -80 -112 -146 -116 -146 -4 0 -10 27 -14 59 -4 32 -10
61 -12 64 -3 2 -62 -8 -131 -23 -70 -15 -128 -25 -130 -23 -3 2 -11 62 -20
133 -12 95 -13 130 -5 135 7 4 43 13 81 19 38 6 92 16 120 22 l52 11 -6 54
c-3 34 -2 54 5 54 5 0 42 -26 82 -57z m2621 37 c9 -15 81 -50 104 -50 10 0 21
-6 24 -14 3 -8 16 -16 29 -18 18 -2 23 -9 23 -32 1 -17 10 -36 23 -46 l22 -18
-30 -37 c-17 -21 -30 -32 -30 -25 0 10 -3 10 -15 0 -12 -10 -15 -10 -15 1 -1
8 -18 32 -40 53 -32 33 -41 38 -53 27 -8 -6 -18 -24 -22 -38 -9 -37 -20 -20
-55 81 l-29 88 22 19 c25 21 33 23 42 9z m-3035 -167 c1 -10 7 -70 14 -133 7
-63 10 -118 7 -121 -3 -4 -20 -10 -37 -13 -31 -7 -31 -7 -37 41 -4 26 -9 89
-13 140 -7 91 -7 91 17 96 44 8 49 7 49 -10z m1147 -526 c44 -44 65 -193 32
-233 -14 -16 -87 -19 -140 -4 -38 11 -139 73 -176 109 -12 11 -28 21 -34 21
-19 0 21 39 67 66 62 37 176 74 204 68 14 -3 35 -15 47 -27z m1793 -31 c0 -20
-12 -28 -87 -56 -49 -19 -133 -51 -187 -72 -112 -44 -141 -46 -141 -8 0 20 8
28 35 37 19 7 103 37 185 67 173 63 195 67 195 32z m-4687 -117 c30 -42 39
-107 19 -152 -17 -39 -17 -39 -82 -41 -71 -3 -181 -18 -306 -42 -120 -22 -192
-15 -258 29 -62 41 -169 137 -161 145 3 3 21 -10 40 -28 41 -39 47 -26 9 19
l-25 30 27 7 c14 4 63 3 108 -2 146 -16 302 -10 386 16 192 57 213 59 243 19z
m3855 -158 c8 -4 12 -18 10 -31 -3 -19 -32 -33 -213 -101 -115 -43 -219 -78
-230 -76 -13 1 -21 11 -23 28 -3 25 3 28 130 74 73 27 171 63 218 81 98 38 91
36 108 25z m344 -11 c136 -38 180 -210 79 -311 -132 -132 -354 -7 -310 174 26
109 123 167 231 137z m-2736 -44 c27 -19 75 -49 106 -65 91 -49 133 -121 108
-186 -11 -28 -13 -28 -20 -10 -14 38 -88 94 -184 139 -92 44 -96 47 -96 79 0
46 10 77 25 77 7 0 35 -15 61 -34z m1644 -159 c60 -32 98 -82 112 -149 15 -73
2 -135 -27 -130 -43 8 -264 134 -285 162 -3 4 -13 6 -22 4 -27 -4 -4 32 35 57
l32 21 -28 -6 c-36 -9 -28 6 21 39 48 31 106 32 162 2z m-1636 -367 c51 -45
95 -119 107 -183 17 -81 -3 -164 -33 -140 -12 11 -85 10 -96 -1 -3 -3 -10 2
-17 11 -10 13 -11 6 -7 -38 5 -60 -2 -70 -69 -107 -63 -35 -79 -32 -103 14
-24 46 -114 150 -127 147 -26 -8 0 25 82 104 87 85 122 130 118 156 -5 41 2
56 29 60 65 10 82 7 116 -23z m-2261 -103 c15 -6 25 -27 12 -27 -10 0 -45 35
-45 45 0 6 3 6 8 -1 4 -6 15 -13 25 -17z m21 -49 c-3 -4 -9 -8 -15 -8 -5 0 -9
4 -9 8 0 5 7 9 15 9 8 0 12 -4 9 -9z m95 -66 c10 -20 29 -73 42 -117 34 -112
34 -361 0 -545 -31 -177 -54 -271 -58 -240 -2 14 -8 34 -13 45 -7 17 -13 66
-20 185 -1 10 -4 9 -10 -5 -7 -16 -9 -13 -8 15 0 19 -5 53 -11 75 -6 22 -11
58 -11 79 0 64 -69 274 -96 297 -23 19 -84 150 -84 180 0 15 -6 29 -12 32 -20
7 -7 14 42 21 27 4 40 3 31 -3 -9 -6 1 -11 34 -15 30 -5 51 -3 60 4 8 7 21 10
29 7 8 -3 16 0 19 6 3 7 14 13 26 14 15 1 27 -9 40 -35z m3949 -78 c22 -15 28
-47 16 -78 -8 -21 -92 -22 -122 0 -47 33 -13 94 53 94 17 0 41 -7 53 -16z
m-1870 -194 c-29 -39 -86 -76 -99 -63 -6 6 14 28 53 60 67 53 84 54 46 3z m20
-100 c33 -31 62 -95 69 -150 7 -63 -3 -117 -22 -117 -8 0 -15 3 -15 6 0 3 -24
7 -53 9 -79 4 -172 37 -186 68 -18 40 -14 48 52 96 34 26 75 60 91 77 35 37
36 37 64 11z m-460 -182 c-31 -28 -32 -29 -8 -23 63 15 149 29 184 29 35 1 43
-4 63 -34 35 -51 28 -73 -27 -82 -63 -11 -184 -49 -191 -61 -13 -19 -28 4 -40
59 -7 30 -15 50 -19 44 -4 -7 -15 3 -28 24 l-21 36 47 24 c62 32 84 23 40 -16z
m409 -455 c33 -57 36 -128 7 -150 -10 -7 -20 -10 -21 -6 -2 5 -32 6 -68 3 -37
-3 -70 -1 -75 4 -7 7 -10 3 -10 -10 0 -16 -12 -24 -57 -38 -98 -31 -106 -29
-124 38 -9 33 -13 37 -19 22 -6 -17 -8 -15 -18 14 -24 69 -9 82 109 100 31 4
92 24 135 43 43 18 86 32 96 29 10 -2 30 -25 45 -49z m-2100 -145 c-3 -7 -5
-2 -5 12 0 14 2 19 5 13 2 -7 2 -19 0 -25z"/>
<path d="M8795 4942 c-38 -14 -71 -26 -72 -27 -2 -1 57 -155 62 -163 5 -6 160
56 158 64 0 5 -12 42 -25 81 -15 49 -28 72 -38 72 -8 -1 -46 -13 -85 -27z
m107 -61 c10 -30 17 -55 15 -57 -8 -8 -112 -42 -118 -39 -8 6 -39 92 -39 110
0 12 85 44 109 42 8 -1 22 -26 33 -56z"/>
<path d="M8813 4890 c-20 -8 -21 -12 -10 -40 10 -26 15 -30 37 -25 36 9 42 18
31 48 -11 28 -22 31 -58 17z"/>
<path d="M8661 4884 c-23 -29 -20 -44 10 -44 10 0 19 -4 19 -10 0 -5 -5 -10
-11 -10 -7 0 -9 -9 -6 -21 3 -12 0 -22 -8 -25 -10 -4 -11 -12 -3 -35 10 -30
16 -33 42 -23 18 7 21 46 5 76 -9 16 -8 22 2 29 11 7 12 12 2 29 -7 11 -13 26
-13 34 0 27 -18 27 -39 0z m40 -137 c-1 -12 -15 -9 -19 4 -3 6 1 10 8 8 6 -3
11 -8 11 -12z"/>
<path d="M8582 4855 c-18 -13 -20 -20 -11 -36 8 -17 7 -23 -8 -35 -17 -12 -16
-13 11 -14 27 0 28 2 22 35 -7 38 0 45 19 18 7 -9 17 -13 23 -9 15 9 15 26 1
26 -7 0 -17 7 -23 15 -10 14 -13 14 -34 0z"/>
<path d="M8522 4829 c2 -7 10 -15 17 -17 8 -3 12 1 9 9 -2 7 -10 15 -17 17 -8
3 -12 -1 -9 -9z"/>
<path d="M8408 4801 c-43 -15 -80 -30 -83 -32 -4 -5 42 -157 51 -168 4 -5 156
48 167 58 7 7 -38 147 -52 162 -3 4 -41 -5 -83 -20z m92 -69 l18 -54 -42 -17
c-85 -37 -82 -38 -104 29 l-21 61 27 10 c15 6 36 15 47 20 41 17 57 6 75 -49z"/>
<path d="M8418 4748 c-31 -11 -33 -16 -16 -53 10 -22 16 -25 37 -20 38 9 43
18 30 53 -12 35 -12 35 -51 20z"/>
<path d="M8953 4751 c4 -18 2 -31 -5 -33 -7 -3 -3 -13 11 -27 31 -31 36 -21
16 38 -18 56 -31 68 -22 22z"/>
<path d="M8740 4750 c0 -19 3 -21 12 -12 9 9 9 15 0 24 -9 9 -12 7 -12 -12z"/>
<path d="M8602 4748 c6 -18 28 -21 28 -4 0 9 -7 16 -16 16 -9 0 -14 -5 -12
-12z"/>
<path d="M8560 4730 c0 -5 5 -10 10 -10 6 0 10 5 10 10 0 6 -4 10 -10 10 -5 0
-10 -4 -10 -10z"/>
<path d="M8644 4688 c5 -21 3 -28 -9 -28 -16 0 -19 -9 -9 -33 6 -18 44 -11 44
9 0 17 21 29 29 16 5 -9 71 39 71 53 0 12 -31 4 -36 -10 -6 -16 -58 -11 -83 9
-12 9 -13 6 -7 -16z"/>
<path d="M8570 4691 c0 -15 16 -22 34 -15 25 9 19 24 -9 24 -14 0 -25 -4 -25
-9z"/>
<path d="M8571 4639 c-14 -6 -21 -15 -17 -24 3 -8 1 -17 -4 -20 -6 -4 -10 -15
-10 -26 0 -11 -4 -17 -10 -14 -20 12 -32 -6 -18 -28 17 -27 17 -59 1 -64 -7
-3 -13 0 -13 6 0 6 -5 11 -11 11 -6 0 -8 -11 -4 -29 5 -24 2 -29 -17 -34 -12
-4 -19 -9 -16 -13 4 -3 19 -4 33 0 17 4 25 13 25 29 1 20 2 21 14 5 11 -15 18
-16 45 -7 41 14 39 46 -2 41 -23 -3 -27 0 -27 21 0 18 8 29 30 39 36 16 40 31
5 22 -27 -7 -36 12 -10 22 8 4 15 14 15 24 0 10 7 20 15 24 8 3 15 10 15 16 0
12 -7 12 -39 -1z"/>
<path d="M8982 4623 c5 -25 28 -28 28 -4 0 12 -6 21 -16 21 -9 0 -14 -7 -12
-17z"/>
<path d="M8694 4606 c-21 -11 -20 -12 16 -38 20 -15 40 -25 44 -21 12 13 6 43
-10 43 -10 0 -14 6 -10 15 6 18 -10 18 -40 1z"/>
<path d="M8473 4595 c-38 -16 -43 -35 -10 -35 22 0 57 27 57 43 0 10 -11 8
-47 -8z"/>
<path d="M8394 4569 c-3 -6 -1 -16 5 -22 8 -8 11 -5 11 11 0 24 -5 28 -16 11z"/>
<path d="M8615 4570 c-3 -5 1 -10 9 -10 9 0 16 5 16 10 0 6 -4 10 -9 10 -6 0
-13 -4 -16 -10z"/>
<path d="M8960 4555 c0 -8 4 -15 9 -15 5 0 14 7 21 15 10 13 9 15 -9 15 -12 0
-21 -6 -21 -15z"/>
<path d="M9165 4560 c3 -6 20 -10 37 -10 38 0 34 5 -10 13 -21 4 -31 3 -27 -3z"/>
<path d="M8460 4525 c0 -18 -12 -19 -28 -3 -9 9 -12 6 -12 -15 0 -31 0 -31 35
-15 24 11 36 48 15 48 -5 0 -10 -7 -10 -15z"/>
<path d="M8575 4500 c3 -5 8 -10 11 -10 2 0 4 5 4 10 0 6 -5 10 -11 10 -5 0
-7 -4 -4 -10z"/>
<path d="M8810 4449 c0 -5 5 -7 10 -4 6 3 10 8 10 11 0 2 -4 4 -10 4 -5 0 -10
-5 -10 -11z"/>
<path d="M8540 4393 c-41 -14 -76 -27 -78 -28 -3 -3 48 -157 53 -164 9 -8 166
52 162 63 -2 6 -15 44 -28 84 -12 39 -25 72 -28 71 -4 0 -40 -12 -81 -26z m91
-67 c13 -42 14 -58 6 -61 -76 -28 -102 -34 -107 -28 -8 9 -41 105 -37 109 7 8
104 42 112 40 5 -1 17 -28 26 -60z"/>
<path d="M8552 4339 c-18 -7 -22 -14 -17 -31 11 -34 19 -40 49 -32 28 7 33 23
16 55 -12 21 -15 22 -48 8z"/>
<path d="M8880 4366 c0 -9 7 -16 16 -16 9 0 14 5 12 12 -6 18 -28 21 -28 4z"/>
<path d="M8836 4331 c-4 -5 -2 -12 3 -15 5 -4 12 -2 15 3 4 5 2 12 -3 15 -5 4
-12 2 -15 -3z"/>
<path d="M8690 4312 c0 -25 16 -47 24 -33 4 6 23 11 42 11 19 0 34 5 34 11 0
7 -10 9 -27 4 -22 -5 -24 -4 -15 7 9 11 5 14 -23 15 -26 1 -35 -3 -35 -15z"/>
<path d="M4975 3425 c-16 -8 -64 -22 -105 -31 -41 -10 -67 -20 -58 -22 20 -4
164 26 191 40 17 9 24 29 10 27 -5 0 -21 -7 -38 -14z"/>
<path d="M9149 3263 c-1 -5 -1 -15 0 -24 1 -8 -10 -21 -24 -27 -41 -19 -30
-47 13 -31 18 7 28 6 34 -3 14 -23 9 -35 -22 -48 -16 -7 -30 -17 -30 -22 0
-16 31 -21 56 -9 22 10 26 8 35 -16 11 -29 25 -22 31 17 2 18 12 27 36 34 34
10 37 13 23 35 -8 12 -16 13 -45 4 -38 -12 -46 -9 -46 19 0 11 13 23 35 32 59
25 43 53 -20 33 -30 -9 -39 -9 -43 1 -4 13 -31 17 -33 5z"/>
<path d="M6388 2523 c7 -3 16 -2 19 1 4 3 -2 6 -13 5 -11 0 -14 -3 -6 -6z"/>
<path d="M6125 1475 c-29 -13 -29 -13 -5 -13 14 0 41 6 60 13 l35 13 -30 1
c-16 0 -43 -6 -60 -14z"/>
</g>
</svg>
